# xmcd
#
# Track frame offsets: 
#        182
#        26077
#        40227
#
# Disc length: 767 seconds
#
# Revision: 1
# Processed by: cddbd v1.5.2PL0 Copyright (c) Steve Scherf et al.
# Submitted via: ExactAudioCopy v1.1
#
DISCID=1e02fd03
DTITLE=C.C.Catch - Good Guys Only Win In Movies [CDM)
DYEAR=1989
DGENRE=Pop
TTITLE0=Good Guys Only Win In Movies (Extended Version)
TTITLE1=Are You Serious
TTITLE2=Good Guys Only Win In Movies (Radio Version)
EXTD=
EXTT0=
EXTT1=
EXTT2=
PLAYORDER=
